<svg width="0" height="0" class="hidden">
  <symbol fill="none" xmlns="http://www.w3.org/2000/svg" viewBox="0 0 22 20" id="Star">
    <path d="M10.0845 0.85958C10.3844 -0.0606967 11.6863 -0.0606959 11.9862 0.859581L13.7373 6.23398C13.8714 6.64561 14.2551 6.92418 14.6881 6.92418H20.3488C21.3182 6.92418 21.7205 8.16521 20.9355 8.73398L16.3607 12.0486C16.0092 12.3033 15.8621 12.7555 15.9966 13.1682L17.7451 18.5349C18.0452 19.4557 16.9919 20.2227 16.2076 19.6544L11.6221 16.3321C11.272 16.0784 10.7987 16.0784 10.4486 16.3321L5.86309 19.6544C5.07883 20.2227 4.02554 19.4557 4.32556 18.5348L6.07414 13.1682C6.20859 12.7555 6.06151 12.3033 5.71005 12.0486L1.13518 8.73398C0.35017 8.16521 0.752501 6.92418 1.7219 6.92418H7.38265C7.81558 6.92418 8.19934 6.64561 8.33346 6.23398L10.0845 0.85958Z" fill="#070707"></path>
  </symbol>
  <symbol fill="none" xmlns="http://www.w3.org/2000/svg" viewBox="0 0 22 20" id="star_gray">
    <path d="M10.1817 0.85958C10.4816 -0.0606967 11.7835 -0.0606959 12.0833 0.859581L13.8344 6.23398C13.9685 6.64561 14.3523 6.92418 14.7852 6.92418H20.446C21.4154 6.92418 21.8177 8.16521 21.0327 8.73398L16.4578 12.0486C16.1064 12.3033 15.9593 12.7555 16.0937 13.1682L17.8423 18.5349C18.1423 19.4557 17.089 20.2227 16.3048 19.6544L11.7192 16.3321C11.3692 16.0784 10.8958 16.0784 10.5458 16.3321L5.96025 19.6544C5.176 20.2227 4.12271 19.4557 4.42273 18.5348L6.1713 13.1682C6.30576 12.7555 6.15868 12.3033 5.80722 12.0486L1.23234 8.73398C0.447338 8.16521 0.849669 6.92418 1.81906 6.92418H7.47982C7.91274 6.92418 8.2965 6.64561 8.43062 6.23398L10.1817 0.85958Z" fill="#E5E5E5"></path>
  </symbol>
</svg>